<svg xmlns="http://www.w3.org/2000/svg" viewBox="0 0 1440 1440">
  <path fill="#100f0d" d="M229.887 1159.376c-42.755 0-77.3 33.338-77.3 74.645 0 41.552 34.545 75.13 77.302 75.13 20.051 0 38.894-7.728 53.147-20.533l6.282 7.003c-15.704 14.496-37.204 23.436-59.667 23.436-48.075 0-87.21-37.928-87.21-84.791 0-46.866 39.137-84.551 87.21-84.551 22.704 0 43.722 8.697 59.421 22.708l-6.036 7.73c-14.012-13.043-33.096-20.777-53.147-20.777m208.218 82.619v76.819h-10.148v-74.888c0-25.845-15.215-41.068-41.064-41.068-31.163.725-49.28 21.502-49.28 54.356v61.6h-10.146v-179.247h10.146v86.24c8.455-21.26 26.329-32.609 51.695-33.093 30.679 0 48.797 18.602 48.797 49.281m126.816 35.753v-20.534h-43.968c-24.643 0-38.167 8.456-38.167 24.638 0 16.67 12.802 28.025 33.336 28.025 23.43 0 41.064-10.145 48.799-32.13zm.24 41.066l-.24-24.88c-10.631 17.392-28.508 25.123-50.247 25.123-24.886 0-41.553-15.702-41.553-36.96 0-21.02 17.876-33.823 46.866-33.823h44.69v-12.322c-.242-21.257-12.56-34.06-37.684-34.06-15.705 0-28.99 6.284-42.277 16.43l-4.83-7.733c14.977-10.87 29.471-17.875 48.555-17.875 29.713 0 45.9 16.428 46.14 42.516l.485 83.584h-9.906m65.932-125.857v125.857h-9.903v-125.857zm3.623-36.237c0 5.072-3.863 8.935-8.454 8.935-4.59 0-8.454-3.861-8.454-8.935 0-4.834 3.864-8.697 8.454-8.697 4.591 0 8.454 3.863 8.454 8.697m157.263 85.275v76.819h-10.146v-74.888c0-25.845-15.22-41.068-41.067-41.068-28.99.725-46.866 18.844-49.04 47.836v68.12h-10.144v-125.857h10.144v32.128c8.456-20.773 26.33-31.887 51.454-32.37 30.681 0 48.799 18.6 48.799 49.28m94.44-81.894c-26.812 0-44.208 11.113-44.208 28.747 0 51.456 99.284 24.882 98.804 87.209 0 26.09-23.434 43-58.703 43-22.468 0-45.416-9.907-60.151-24.4l5.316-8.939c13.77 14.251 35.27 22.949 55.075 22.949 28.99 0 47.589-12.559 47.589-32.368.484-52.907-98.8-25.851-98.8-86.728 0-24.396 22.224-40.1 55.559-40.1 17.153 0 35.753 5.555 48.316 13.77l-4.591 9.182c-12.56-8.214-29.712-12.322-44.206-12.322m177.062 117.647v-20.534h-43.968c-24.64 0-38.167 8.456-38.167 24.638 0 16.67 12.804 28.025 33.336 28.025 23.43 0 41.068-10.145 48.799-32.13zm.24 41.066l-.24-24.88c-10.631 17.392-28.506 25.122-50.247 25.122-24.886 0-41.55-15.7-41.55-36.96 0-21.019 17.873-33.822 46.863-33.822h44.693v-12.322c-.246-21.257-12.56-34.06-37.684-34.06-15.704 0-28.993 6.284-42.278 16.43l-4.832-7.733c14.978-10.87 29.472-17.875 48.557-17.875 29.711 0 45.9 16.428 46.136 42.516l.484 83.584h-9.903m68.59-139.872v17.155h38.893v8.697h-38.892v114.02h-9.905v-114.02h-15.942v-8.697h15.942v-16.427c0-24.398 17.155-40.585 37.203-40.344 9.18 0 18.6 3.381 25.604 8.94l-4.584 8.215c-6.043-4.595-13.53-7.49-20.777-7.49-15.46-.244-27.54 12.078-27.54 29.95m156.054 70.785c-1.936-28.506-20.537-47.834-49.284-47.834-28.263 0-48.797 19.328-51.211 47.834zm9.174 8.936H1187.63c1.45 30.68 22.707 51.215 51.936 51.215 17.153 0 32.374-6.28 42.521-17.396l5.797 6.526c-11.597 12.563-28.748 20.05-48.8 20.05-35.51 0-61.36-26.092-61.36-63.052s25.85-63.29 61.36-63.29c36.964 0 59.187 27.055 58.458 65.947"/>
  <path fill="#f2f031" d="M355.952 346.498v281.97l81.391-46.992V394.438l166.903-89.332v-91.529L355.952 346.498"/>
  <path fill="none" stroke="#211d1d" stroke-linecap="round" stroke-linejoin="round" stroke-miterlimit="10" stroke-width="11.317" d="M355.952 346.498v281.97l81.391-46.992V394.438l166.903-89.332v-91.529z"/>
  <path fill="#f2f031" d="M1083.992 489.478v91.836L846.46 444.57l-.405-91.398 237.937 136.307"/>
  <path fill="none" stroke="#211d1d" stroke-linecap="round" stroke-linejoin="round" stroke-miterlimit="10" stroke-width="11.317" d="M1083.992 489.478v91.836L846.46 444.57l-.405-91.398z"/>
  <path fill="#f2f031" d="M1083.992 581.314v-91.836l81.184-43.185v91.245l-81.184 43.776"/>
  <path fill="none" stroke="#211d1d" stroke-linecap="round" stroke-linejoin="round" stroke-miterlimit="10" stroke-width="11.317" d="M1083.992 581.314v-91.836l81.184-43.185v91.245z"/>
  <path fill="#f2f031" d="M848.865 354.986L668.737 452.06l.024 91.395 180.5-96.279-.396-92.19"/>
  <path fill="none" stroke="#211d1d" stroke-linecap="round" stroke-linejoin="round" stroke-miterlimit="10" stroke-width="11.317" d="M848.865 354.986L668.737 452.06l.024 91.395 180.5-96.279z"/>
  <path fill="#f2f031" d="M668.737 452.06l180.128-97.074 235.127 134.492 81.184-43.185L603.902 123.2 274.56 299.51l81.405 46.99 248.28-132.922 159.382 91.749-180.864 97.178 85.974 49.556-85.974-49.556v191.552l325.982 186.212 91.789-48.679L668.76 543.455l-.024-91.395"/>
  <path fill="none" stroke="#211d1d" stroke-linecap="round" stroke-linejoin="round" stroke-miterlimit="10" stroke-width="11.317" d="M668.737 452.06l180.128-97.074 235.127 134.492 81.184-43.185L603.902 123.2 274.56 299.51l81.405 46.99 248.28-132.922 159.382 91.749-180.864 97.178 85.974 49.556-85.974-49.556v191.552l325.982 186.212 91.788-48.679-331.772-188.134z"/>
  <path fill="#f2f031" d="M840.793 997.827l-566.235-323.22V299.512l81.09 46.989v278.9l485.145 279.158v93.27"/>
  <path fill="none" stroke="#211d1d" stroke-linecap="round" stroke-linejoin="round" stroke-miterlimit="10" stroke-width="11.317" d="M840.793 997.827l-566.235-323.22V299.512l81.09 46.989v278.9l485.145 279.158z"/>
  <path fill="#f2f031" d="M1165.176 731.205L840.793 904.557v93.27l324.383-173.64v-92.982l-409.13-234.379-87.287 46.629 331.776 188.134-157.23 83.388L603.81 676.874l-166.452-95.412-81.71 43.936 485.147 279.159"/>
  <path fill="none" stroke="#211d1d" stroke-linecap="round" stroke-linejoin="round" stroke-miterlimit="10" stroke-width="11.317" d="M1165.176 731.205L840.793 904.557v93.27l324.383-173.64v-92.982l-409.13-234.379-87.287 46.629 331.776 188.134-157.23 83.388L603.81 676.874l-166.452-95.412-81.71 43.936 485.147 279.159"/>
  <path fill="#f2f031" d="M604.244 305.106l76.96 44.505 82.423-44.284-159.381-91.75v91.53"/>
  <path fill="none" stroke="#211d1d" stroke-linecap="round" stroke-linejoin="round" stroke-miterlimit="10" stroke-width="11.317" d="M604.244 305.106l76.96 44.505 82.423-44.284-159.381-91.75z"/>
</svg>
