<svg xmlns="http://www.w3.org/2000/svg" viewBox="0 0 433 180.5">
  <defs>
    <linearGradient id="linear-gradient" x1="40.11" x2="140.87" y1="140.87" y2="40.11" gradientUnits="userSpaceOnUse">
      <stop offset=".21" stop-color="#4a4f54"/>
      <stop offset=".42" stop-color="#4a4f54" stop-opacity="0"/>
      <stop offset=".59" stop-color="#4a4f54" stop-opacity="0"/>
      <stop offset=".81" stop-color="#4a4f54"/>
    </linearGradient>
  </defs>
  <path fill="url(#linear-gradient)" d="M48.84 144.5a12.32 12.32 0 009.35-4.28l84.42-97.93a12.32 12.32 0 00-10.45-5.79 12.31 12.31 0 00-9.31 4.24L38 138.09a12.34 12.34 0 0010.84 6.41z"/>
  <path fill="#4a4f54" d="M48.84 144.5a12.38 12.38 0 005.66-1.37V61.36l65.58 78.7a12.37 12.37 0 009.49 4.44h2.59a12.35 12.35 0 0012.34-12.34V48.84a12.35 12.35 0 00-12.34-12.34 12.45 12.45 0 00-5.62 1.35v81.79l-65.62-78.7a12.37 12.37 0 00-9.49-4.44h-2.59A12.35 12.35 0 0036.5 48.84v83.32a12.35 12.35 0 0012.34 12.34zM225.71 64.25v52.5a.76.76 0 01-.75.75h-5.51a7.49 7.49 0 01-6.3-3.43l-24.78-38.3.85 19.13v21.85a.76.76 0 01-.75.75h-7.22a.76.76 0 01-.75-.75v-52.5a.76.76 0 01.75-.75h5.43a7.52 7.52 0 016.3 3.42l24.78 38.24L217 86.1V64.25a.75.75 0 01.75-.75H225a.76.76 0 01.71.75zM299.51 117.5h-7.64a.75.75 0 01-.7-1l20.23-52.28a1.14 1.14 0 011.05-.72H322a1.14 1.14 0 011.05.72l20.23 52.26a.75.75 0 01-.7 1H335a.76.76 0 01-.71-.48l-16.35-43a.75.75 0 00-1.41 0l-16.31 43a.76.76 0 01-.71.5zM396.34 116.29L381.16 96.9c8.57-1.62 13.58-7.4 13.58-16.27 0-10.19-6.63-17.13-18.36-17.13h-21.17a1.12 1.12 0 00-1.12 1.12 7.2 7.2 0 007.2 7.21h14.17c7.09 0 10.49 3.63 10.49 8.87s-3.32 9-10.49 9h-20.25a1.13 1.13 0 00-1.12 1.13v26a.75.75 0 00.75.75h7.22a.76.76 0 00.75-.75V97.37h8.33l13.17 17.19a7.51 7.51 0 006 2.94h5.48a.75.75 0 00.55-1.21zM276.67 63.5h-33.5a1 1 0 00-1 1 7.33 7.33 0 007.33 7.33h27.17a.74.74 0 00.75-.75v-6.83a.75.75 0 00-.75-.75zm0 45.67h-25a.76.76 0 01-.75-.75V94.88a.75.75 0 01.75-.75h23.11a.75.75 0 00.75-.75v-6.84a.75.75 0 00-.75-.75h-31.49a1.13 1.13 0 00-1.12 1.13v29.45a1.12 1.12 0 001.12 1.13h33.38a.75.75 0 00.75-.75v-6.83a.74.74 0 00-.75-.75z" class="cls-2"/>
</svg>
