<svg xmlns="http://www.w3.org/2000/svg" viewBox="0 0 400 240">
  <path fill="#93be47" d="M266.5 141.1v-.4l-.3-1.9V137l-.2-1.1-.2-1.2v-1.4l-.3-1.8-.3-2-.7-4.5-.3-1.9-.3-2-.3-1.8-.6-4.1-.2-1.4-.2-1.5-.3-1.8-2.2-12.5-.6-4.2-.7-4.9-.3-1.9-.5-3-.3-2.1-.2-1.3-.4-2.6-.6-3.9-.2-1.3-.8-5.3-.3-2.1-.5-3.1-.2-1.2-.8-5.2-.8-5.4-.5-3.6v-1.5l-.8-5.3-.2-1.5-.3-1.8v-2l-.3-1.8v-3.5a1.5 1.5 0 00-1.3-1.2l-12.2-.9-8.9-8.9-.6-.4a4.5 4.5 0 00-2.7-.1l-4.5 1.4a33.3 33.3 0 00-4.1-8.3c-2.8-3.9-6.6-6.6-11.7-6.6h-.7a12.6 12.6 0 00-5.3-3.6 8 8 0 00-3.5-.9 22.2 22.2 0 00-6.1.9c-15.4 4.4-23.1 25-25.7 36l-13.7 4.2c-4.2 1.3-4.3 1.4-4.9 5.4s-11.5 88.7-11.5 88.7l78.2 14.6 1.3.2 6.8 1.3 7-1.5 39.7-8.6zM200.6 10.8a37 37 0 011.9 13.1v.8l-15.1 4.6c3-11 8.4-16.5 13.2-18.5zm-5.8-5.4a4.6 4.6 0 012.5.8c-6.3 2.9-12.9 10.3-15.8 25.1L169.6 35c3.3-11.3 11.2-29.6 25.2-29.6zm12.8 17.8v-1.6a35.5 35.5 0 00-1.8-11.8c3 .5 5.4 3 7.1 6.4a31 31 0 011.9 4.8l-1.9.6z"/>
  <path fill="#5f8d3e" d="M248.7 28.3l-12.2-.9-8.9-8.9a1.8 1.8 0 00-1.2-.5l-6.5 133.4 46.7-10.1S250.1 30.4 250 29.6a1.6 1.6 0 00-1.3-1.3z"/>
  <path fill="#fff" d="M203.9 54.1l-5.8 17.1a26.9 26.9 0 00-11.2-2.7c-9.1 0-9.5 5.7-9.5 7.1 0 7.8 20.4 10.8 20.4 29.2 0 14.4-9.2 23.7-21.5 23.7-14.8 0-22.4-9.2-22.4-9.2l3.9-13.1s7.8 6.7 14.4 6.7a5.8 5.8 0 006.1-5.9c0-10.3-16.8-10.7-16.8-27.5 0-14.1 10.2-27.8 30.6-27.8 7.9.2 11.8 2.4 11.8 2.4z"/>
  <path fill="#231f20" d="M319.9 175.1s-7.9 19.9-11.4 30.7h-.2c-.2-3.5-3.1-30.7-3.1-30.7h-13.3l7.6 41a2.9 2.9 0 01-.2 2.1 21.7 21.7 0 01-6.8 7.6 28.3 28.3 0 01-7.1 3.5l3.5 10.7a28.9 28.9 0 0012.3-6.9c5.8-5.4 11.1-13.7 16.5-25l15.4-33zm-30.4-.1zm-.8-10.2a13.5 13.5 0 014 .6l2.4-9.9s-2.2-1.1-6.8-1.1a18.8 18.8 0 00-12.4 4.2c-4.3 3.7-6.3 8.9-7.3 14.3l-.4 2.1h-5.9l-1.8 9.5h5.9l-6.7 35.2h12.6l6.7-35.2h8.7l1.7-9.5h-8.7l.4-2.1c.9-4.2 3.5-8 7.6-8zm-43.8 10.3l-8.5 44.6H249l8.6-44.6zm14-17a6.1 6.1 0 00-4.9-2.1 7.2 7.2 0 00-5.1 2.1 7.2 7.2 0 00-2.1 5.2c0 3.7 2.4 6.3 5.9 6.3h.2a7.1 7.1 0 007.4-7.3 6.4 6.4 0 00-1.4-4.2zm-35.9 16c-8.5 0-13.3 7.4-13.3 7.4h-.2l.7-6.7h-11.1c-.5 4.6-1.5 11.5-2.6 16.7l-8.7 46.1h12.5l3.5-18.6h.3s2.6 1.6 7.4 1.6c14.8 0 24.4-15.2 24.4-30.5.1-8.4-3.7-15.9-12.9-15.9zm-12 37a7.8 7.8 0 01-5.2-1.8l2.1-11.8c1.5-7.8 5.6-13.1 10-13.1s5 3.5 5 6.9c0 8.3-4.8 19.9-11.9 19.9zM173.7 174c-15.2 0-25.2 13.7-25.2 28.9 0 9.8 6.1 17.6 17.4 17.6 14.9 0 25-13.3 25-28.9-.1-8.9-5.4-17.5-17.2-17.5zm-6.2 37c-4.3 0-6.1-3.7-6.1-8.2 0-7.2 3.7-19 10.6-19 4.5 0 5.9 3.9 5.9 7.6 0 7.7-3.7 19.6-10.4 19.6zm-32.6-36.8c-5.6 0-10 2.6-13.3 6.7h-.2l4.8-25.3h-12.5L101.5 220H114l4.2-22c1.6-8.3 5.9-13.5 10-13.5s3.9 1.9 3.9 4.6a28 28 0 01-.5 5.6l-4.8 25.2h12.6l5-26a46.8 46.8 0 00.9-8.2c-.1-7.2-3.8-11.5-10.4-11.5zm-45.1 18.7c-3.2-1.7-4.8-3.2-4.8-5.2s2.2-4.2 5.9-4.2a20.7 20.7 0 017.8 1.7l2.9-8.9s-2.7-2.1-10.6-2.1c-11 0-18.7 6.3-18.7 15.2 0 5 3.5 8.9 8.3 11.6s5.2 3.7 5.2 6-1.9 4.3-5.5 4.3a24.6 24.6 0 01-10.3-2.7l-3 8.9s4.6 3.1 12.4 3.1c11.3 0 19.4-5.6 19.4-15.6.1-5.5-4-9.3-9-12.1z"/>
</svg>
